<?xml version="1.0" encoding="UTF-8"?>
<svg xmlns="http://www.w3.org/2000/svg" xmlns:xlink="http://www.w3.org/1999/xlink" width="25px" height="25px" viewBox="0 0 32 32" version="1.1">
<g id="surface1">
<path style=" stroke:none;fill-rule:nonzero;fill:rgb(0%,0%,0%);fill-opacity:1;" d="M 15.261719 12.316406 C 15.058594 12.113281 14.730469 12.113281 14.527344 12.316406 C 14.324219 12.519531 14.324219 12.847656 14.527344 13.050781 L 16.738281 15.261719 C 16.839844 15.363281 16.972656 15.414062 17.105469 15.414062 C 17.238281 15.414062 17.371094 15.363281 17.472656 15.261719 C 17.675781 15.058594 17.675781 14.730469 17.472656 14.527344 Z M 15.261719 12.316406 "/>
<path style=" stroke:none;fill-rule:nonzero;fill:rgb(0%,0%,0%);fill-opacity:1;" d="M 15.261719 7.894531 C 15.058594 7.691406 14.730469 7.691406 14.527344 7.894531 C 14.324219 8.09375 14.324219 8.421875 14.527344 8.625 L 16.738281 10.835938 C 16.839844 10.9375 16.972656 10.988281 17.105469 10.988281 C 17.238281 10.988281 17.371094 10.9375 17.472656 10.835938 C 17.675781 10.636719 17.675781 10.304688 17.472656 10.105469 Z M 15.261719 7.894531 "/>
<path style=" stroke:none;fill-rule:nonzero;fill:rgb(0%,0%,0%);fill-opacity:1;" d="M 15.261719 3.46875 C 15.058594 3.265625 14.730469 3.265625 14.527344 3.46875 C 14.324219 3.671875 14.324219 4 14.527344 4.203125 L 16.738281 6.414062 C 16.839844 6.515625 16.972656 6.566406 17.105469 6.566406 C 17.238281 6.566406 17.371094 6.515625 17.472656 6.414062 C 17.675781 6.210938 17.675781 5.882812 17.472656 5.679688 Z M 15.261719 3.46875 "/>
<path style=" stroke:none;fill-rule:nonzero;fill:rgb(0%,0%,0%);fill-opacity:1;" d="M 15.261719 21.164062 C 15.058594 20.960938 14.730469 20.960938 14.527344 21.164062 C 14.324219 21.363281 14.324219 21.691406 14.527344 21.894531 L 16.738281 24.105469 C 16.839844 24.207031 16.972656 24.257812 17.105469 24.257812 C 17.238281 24.257812 17.371094 24.207031 17.472656 24.105469 C 17.675781 23.90625 17.675781 23.578125 17.472656 23.375 Z M 15.261719 21.164062 "/>
<path style=" stroke:none;fill-rule:nonzero;fill:rgb(0%,0%,0%);fill-opacity:1;" d="M 15.261719 16.738281 C 15.058594 16.535156 14.730469 16.535156 14.527344 16.738281 C 14.324219 16.941406 14.324219 17.269531 14.527344 17.472656 L 16.738281 19.683594 C 16.839844 19.785156 16.972656 19.835938 17.105469 19.835938 C 17.238281 19.835938 17.371094 19.785156 17.472656 19.683594 C 17.675781 19.480469 17.675781 19.152344 17.472656 18.949219 Z M 15.261719 16.738281 "/>
<path style=" stroke:none;fill-rule:nonzero;fill:rgb(0%,0%,0%);fill-opacity:1;" d="M 15.261719 25.585938 C 15.058594 25.382812 14.730469 25.382812 14.527344 25.585938 C 14.324219 25.789062 14.324219 26.117188 14.527344 26.320312 L 16.738281 28.53125 C 16.839844 28.632812 16.972656 28.683594 17.105469 28.683594 C 17.238281 28.683594 17.371094 28.632812 17.472656 28.53125 C 17.675781 28.328125 17.675781 28 17.472656 27.796875 Z M 15.261719 25.585938 "/>
<path style=" stroke:none;fill-rule:nonzero;fill:rgb(0%,0%,0%);fill-opacity:1;" d="M 16 0 C 13.886719 0 12.164062 1.722656 12.164062 3.835938 L 12.164062 28.164062 C 12.164062 30.277344 13.886719 32 16 32 C 18.113281 32 19.835938 30.277344 19.835938 28.164062 L 19.835938 3.835938 C 19.835938 1.722656 18.113281 0 16 0 Z M 18.800781 28.164062 C 18.800781 29.707031 17.542969 30.964844 16 30.964844 C 14.457031 30.964844 13.199219 29.707031 13.199219 28.164062 L 13.199219 3.835938 C 13.199219 2.292969 14.457031 1.035156 16 1.035156 C 17.542969 1.035156 18.800781 2.292969 18.800781 3.835938 Z M 18.800781 28.164062 "/>
</g>
</svg>
