<?xml version="1.0" encoding="UTF-8"?>
<svg xmlns="http://www.w3.org/2000/svg" xmlns:xlink="http://www.w3.org/1999/xlink" width="25px" height="25px" viewBox="0 0 32 32" version="1.1">
<g id="surface1">
<path style=" stroke:none;fill-rule:nonzero;fill:rgb(0%,0%,0%);fill-opacity:1;" d="M 26.113281 10.394531 C 25.886719 10.371094 25.714844 10.167969 25.738281 9.933594 C 25.761719 9.707031 25.96875 9.535156 26.199219 9.558594 C 26.714844 9.613281 27.207031 9.773438 27.660156 10.042969 C 27.878906 10.175781 28.082031 10.332031 28.277344 10.511719 C 28.367188 10.296875 28.476562 10.097656 28.601562 9.910156 C 28.878906 9.496094 29.242188 9.160156 29.667969 8.910156 C 29.871094 8.792969 30.128906 8.863281 30.242188 9.066406 C 30.359375 9.265625 30.289062 9.523438 30.089844 9.636719 C 29.769531 9.820312 29.503906 10.074219 29.296875 10.378906 C 29.097656 10.675781 28.953125 11.027344 28.882812 11.421875 C 28.867188 11.535156 28.808594 11.636719 28.710938 11.707031 C 28.523438 11.84375 28.261719 11.800781 28.125 11.613281 C 27.863281 11.242188 27.558594 10.960938 27.226562 10.761719 C 26.886719 10.558594 26.511719 10.4375 26.113281 10.394531 Z M 9.632812 13.464844 L 9.632812 27.375 L 11.246094 27.375 L 13.128906 25.308594 L 12.128906 25.308594 L 12.128906 24.042969 L 15.21875 24.042969 L 11.734375 20.183594 L 12.671875 19.339844 L 14.78125 21.675781 L 14.78125 21.582031 L 19.945312 21.582031 C 20.171875 21.582031 20.371094 21.703125 20.484375 21.882812 L 22.011719 24.042969 L 24.878906 24.042969 C 25.066406 24.042969 25.238281 24.125 25.355469 24.261719 L 28.496094 27.375 L 32 27.375 L 32 28.636719 L 0.183594 28.636719 L 0.183594 27.375 L 8.652344 27.375 L 8.652344 13.464844 L 0.492188 13.464844 C 0.222656 13.464844 0 13.246094 0 12.972656 C 0 12.957031 0 12.941406 0.00390625 12.925781 C 0.0234375 10.472656 1.046875 8.253906 2.691406 6.648438 C 4.3125 5.066406 6.535156 4.074219 8.996094 4.042969 C 9.042969 4.027344 9.09375 4.019531 9.144531 4.019531 C 9.199219 4.019531 9.25 4.027344 9.300781 4.042969 C 11.746094 4.085938 13.953125 5.074219 15.566406 6.652344 C 17.222656 8.269531 18.246094 10.503906 18.253906 12.972656 C 18.253906 13.246094 18.035156 13.464844 17.765625 13.464844 Z M 12.953125 27.378906 L 26.703125 27.378906 L 24.617188 25.308594 L 14.832031 25.308594 Z M 16.917969 24.042969 L 20.464844 24.042969 L 19.621094 22.847656 L 15.839844 22.847656 Z M 21.855469 5.433594 C 21.585938 5.464844 21.339844 5.277344 21.304688 5.011719 C 21.269531 4.742188 21.457031 4.496094 21.726562 4.460938 C 22.574219 4.347656 23.394531 4.449219 24.136719 4.78125 C 24.585938 4.980469 25 5.261719 25.371094 5.632812 C 25.574219 5.175781 25.851562 4.777344 26.191406 4.441406 C 26.75 3.886719 27.472656 3.511719 28.292969 3.371094 C 28.5625 3.324219 28.816406 3.503906 28.863281 3.769531 C 28.910156 4.039062 28.726562 4.292969 28.460938 4.339844 C 27.839844 4.445312 27.300781 4.722656 26.886719 5.136719 C 26.472656 5.542969 26.183594 6.085938 26.054688 6.730469 L 26.050781 6.730469 C 26.027344 6.851562 25.957031 6.964844 25.847656 7.042969 C 25.621094 7.191406 25.316406 7.136719 25.167969 6.910156 C 24.769531 6.328125 24.285156 5.921875 23.738281 5.679688 C 23.167969 5.417969 22.527344 5.34375 21.855469 5.433594 Z M 14.882812 7.355469 C 14.214844 6.703125 13.433594 6.160156 12.566406 5.769531 C 12.902344 6.25 13.183594 6.800781 13.410156 7.40625 C 13.945312 8.816406 14.207031 10.546875 14.230469 12.484375 L 17.257812 12.484375 C 17.128906 10.484375 16.246094 8.683594 14.882812 7.355469 Z M 10.566406 5.148438 C 10.261719 5.097656 9.953125 5.058594 9.636719 5.039062 L 9.636719 12.484375 L 13.253906 12.484375 C 13.230469 10.667969 12.988281 9.050781 12.496094 7.753906 C 12.058594 6.59375 11.421875 5.695312 10.566406 5.148438 Z M 8.652344 5.035156 C 8.34375 5.054688 8.035156 5.089844 7.738281 5.136719 C 6.871094 5.6875 6.230469 6.59375 5.789062 7.769531 C 5.300781 9.0625 5.0625 10.675781 5.039062 12.480469 L 8.652344 12.480469 Z M 5.742188 5.746094 C 4.855469 6.144531 4.054688 6.691406 3.375 7.355469 C 2.011719 8.6875 1.128906 10.488281 1 12.484375 L 4.0625 12.484375 C 4.085938 10.558594 4.347656 8.832031 4.875 7.425781 C 5.105469 6.800781 5.394531 6.234375 5.742188 5.746094 Z M 5.742188 5.746094 "/>
</g>
</svg>
