<?xml version="1.0" encoding="UTF-8"?>
<svg xmlns="http://www.w3.org/2000/svg" xmlns:xlink="http://www.w3.org/1999/xlink" width="25px" height="25px" viewBox="0 0 32 32" version="1.1">
<g id="surface1">
<path style=" stroke:none;fill-rule:evenodd;fill:rgb(0%,0%,0%);fill-opacity:1;" d="M 1 12 C 0.695312 12 0.410156 12.136719 0.21875 12.375 C 0.03125 12.609375 -0.0429688 12.921875 0.0234375 13.214844 L 3.328125 28.085938 C 3.835938 30.371094 5.863281 32 8.207031 32 L 19.792969 32 C 22.136719 32 24.164062 30.371094 24.671875 28.085938 L 24.933594 26.902344 C 28.113281 27.5 31.191406 25.464844 31.894531 22.308594 C 32.597656 19.148438 30.667969 16.003906 27.535156 15.195312 L 27.976562 13.214844 C 28.042969 12.921875 27.96875 12.609375 27.78125 12.375 C 27.589844 12.136719 27.304688 12 27 12 Z M 26 25 C 25.789062 25 25.578125 24.984375 25.367188 24.949219 L 27.101562 17.152344 C 29.015625 17.707031 30.230469 19.582031 29.953125 21.554688 C 29.675781 23.527344 27.992188 24.996094 26 25 "/>
<path style=" stroke:none;fill-rule:nonzero;fill:rgb(0%,0%,0%);fill-opacity:1;" d="M 8.800781 1.601562 L 8.792969 1.609375 L 8.765625 1.644531 C 8.621094 1.847656 8.484375 2.054688 8.359375 2.265625 C 8.25 2.4375 8.15625 2.613281 8.074219 2.800781 C 8.023438 2.921875 8.007812 2.984375 8.003906 3.007812 L 8.003906 3.015625 C 8.023438 3.191406 8.085938 3.359375 8.183594 3.511719 C 8.335938 3.777344 8.539062 4.054688 8.800781 4.398438 L 8.820312 4.425781 C 9.054688 4.738281 9.339844 5.117188 9.558594 5.511719 C 9.785156 5.910156 10 6.421875 10 7 C 10 7.375 9.871094 7.734375 9.761719 7.988281 C 9.644531 8.257812 9.511719 8.515625 9.359375 8.765625 C 9.199219 9.027344 9.03125 9.28125 8.851562 9.527344 L 8.816406 9.578125 L 8.804688 9.59375 L 8.800781 9.597656 C 8.472656 10.039062 7.84375 10.128906 7.402344 9.800781 C 6.960938 9.46875 6.871094 8.84375 7.199219 8.398438 L 7.207031 8.390625 L 7.234375 8.355469 C 7.378906 8.152344 7.515625 7.945312 7.640625 7.734375 C 7.75 7.5625 7.84375 7.386719 7.925781 7.199219 C 7.976562 7.078125 7.992188 7.015625 7.996094 6.992188 C 7.976562 6.816406 7.914062 6.640625 7.816406 6.488281 C 7.632812 6.179688 7.425781 5.882812 7.199219 5.601562 L 7.179688 5.574219 C 6.910156 5.230469 6.664062 4.867188 6.441406 4.488281 C 6.167969 4.039062 6.015625 3.527344 6 3 C 6 2.625 6.128906 2.265625 6.238281 2.011719 C 6.355469 1.734375 6.507812 1.464844 6.640625 1.234375 C 6.800781 0.976562 6.96875 0.71875 7.148438 0.472656 L 7.199219 0.402344 C 7.527344 -0.0390625 8.15625 -0.128906 8.597656 0.199219 C 9.039062 0.53125 9.128906 1.15625 8.800781 1.601562 M 14.800781 1.601562 L 14.792969 1.609375 L 14.765625 1.644531 C 14.621094 1.847656 14.484375 2.054688 14.359375 2.265625 C 14.25 2.4375 14.15625 2.613281 14.074219 2.800781 C 14.023438 2.921875 14.007812 2.984375 14.003906 3.007812 L 14.003906 3.015625 C 14.023438 3.191406 14.085938 3.359375 14.183594 3.511719 C 14.335938 3.777344 14.539062 4.054688 14.800781 4.398438 L 14.820312 4.425781 C 15.054688 4.738281 15.339844 5.117188 15.558594 5.511719 C 15.785156 5.910156 16 6.421875 16 7 C 16 7.375 15.871094 7.734375 15.761719 7.988281 C 15.644531 8.257812 15.511719 8.515625 15.359375 8.765625 C 15.199219 9.027344 15.03125 9.28125 14.851562 9.527344 L 14.816406 9.578125 L 14.804688 9.59375 L 14.800781 9.597656 C 14.472656 10.039062 13.84375 10.128906 13.402344 9.800781 C 12.960938 9.46875 12.871094 8.84375 13.199219 8.398438 L 13.207031 8.390625 L 13.234375 8.355469 C 13.378906 8.152344 13.515625 7.945312 13.640625 7.734375 C 13.75 7.5625 13.84375 7.386719 13.925781 7.199219 C 13.976562 7.078125 13.992188 7.015625 13.996094 6.992188 C 13.976562 6.816406 13.914062 6.640625 13.816406 6.488281 C 13.632812 6.179688 13.425781 5.882812 13.199219 5.601562 L 13.179688 5.574219 C 12.910156 5.230469 12.664062 4.867188 12.441406 4.488281 C 12.167969 4.039062 12.015625 3.527344 12 3 C 12 2.625 12.128906 2.265625 12.238281 2.011719 C 12.355469 1.734375 12.507812 1.464844 12.640625 1.234375 C 12.800781 0.976562 12.96875 0.71875 13.148438 0.472656 L 13.199219 0.402344 C 13.527344 -0.0390625 14.15625 -0.128906 14.597656 0.199219 C 15.039062 0.53125 15.128906 1.15625 14.800781 1.601562 M 20.800781 1.601562 L 20.792969 1.609375 L 20.765625 1.644531 C 20.621094 1.847656 20.484375 2.054688 20.359375 2.265625 C 20.25 2.4375 20.15625 2.613281 20.074219 2.800781 C 20.023438 2.921875 20.007812 2.984375 20.003906 3.007812 L 20.003906 3.015625 C 20.023438 3.191406 20.085938 3.359375 20.183594 3.511719 C 20.335938 3.777344 20.539062 4.054688 20.800781 4.398438 L 20.820312 4.425781 C 21.054688 4.738281 21.339844 5.117188 21.558594 5.511719 C 21.785156 5.910156 22 6.421875 22 7 C 22 7.375 21.871094 7.734375 21.761719 7.988281 C 21.644531 8.257812 21.511719 8.515625 21.359375 8.765625 C 21.203125 9.027344 21.035156 9.28125 20.855469 9.527344 L 20.816406 9.578125 L 20.804688 9.59375 L 20.800781 9.597656 C 20.472656 10.039062 19.84375 10.128906 19.402344 9.800781 C 18.960938 9.46875 18.871094 8.84375 19.199219 8.398438 L 19.207031 8.390625 L 19.234375 8.355469 C 19.378906 8.152344 19.515625 7.945312 19.640625 7.734375 C 19.75 7.5625 19.84375 7.386719 19.925781 7.199219 C 19.976562 7.078125 19.992188 7.015625 19.996094 6.992188 C 19.976562 6.816406 19.914062 6.640625 19.816406 6.488281 C 19.632812 6.179688 19.425781 5.882812 19.199219 5.601562 L 19.179688 5.574219 C 18.910156 5.230469 18.664062 4.867188 18.441406 4.488281 C 18.167969 4.039062 18.015625 3.527344 18 3 C 18 2.625 18.128906 2.265625 18.238281 2.011719 C 18.355469 1.734375 18.507812 1.464844 18.640625 1.234375 C 18.800781 0.976562 18.96875 0.71875 19.148438 0.472656 L 19.199219 0.402344 C 19.527344 -0.0390625 20.15625 -0.128906 20.597656 0.199219 C 21.039062 0.53125 21.128906 1.15625 20.800781 1.601562 "/>
</g>
</svg>
