<?xml version="1.0" encoding="UTF-8"?>
<svg xmlns="http://www.w3.org/2000/svg" xmlns:xlink="http://www.w3.org/1999/xlink" width="25px" height="25px" viewBox="0 0 32 32" version="1.1">
<g id="surface1">
<path style=" stroke:none;fill-rule:nonzero;fill:rgb(0%,0%,0%);fill-opacity:1;" d="M 29.332031 16.132812 C 29.332031 23.496094 23.363281 29.46875 16 29.46875 C 8.636719 29.46875 2.667969 23.496094 2.667969 16.132812 C 2.667969 8.769531 8.636719 2.800781 16 2.800781 C 23.363281 2.800781 29.332031 8.769531 29.332031 16.132812 Z M 23.957031 14.839844 C 23.957031 13.453125 22.894531 12.296875 21.515625 12.175781 C 20.132812 12.054688 18.886719 13.011719 18.648438 14.378906 C 18.40625 15.742188 19.25 17.066406 20.589844 17.425781 L 20.589844 19.976562 C 20.546875 21.820312 19.042969 23.292969 17.199219 23.292969 C 15.355469 23.292969 13.847656 21.820312 13.808594 19.976562 L 13.808594 19.414062 C 15.996094 19.070312 17.613281 17.183594 17.617188 14.96875 L 17.617188 11.363281 C 17.617188 10.699219 17.300781 10.070312 16.765625 9.675781 C 16.753906 8.988281 16.277344 8.390625 15.609375 8.230469 C 14.9375 8.070312 14.246094 8.386719 13.925781 8.996094 C 13.605469 9.609375 13.742188 10.359375 14.253906 10.816406 C 14.765625 11.277344 15.527344 11.332031 16.097656 10.945312 C 16.1875 11.066406 16.234375 11.214844 16.234375 11.363281 L 16.234375 14.96875 C 16.234375 16.691406 14.839844 18.085938 13.117188 18.085938 C 11.394531 18.085938 9.996094 16.691406 9.996094 14.96875 L 9.996094 11.363281 C 9.996094 11.195312 10.058594 11.03125 10.164062 10.902344 C 10.71875 11.316406 11.480469 11.304688 12.019531 10.871094 C 12.554688 10.4375 12.730469 9.691406 12.4375 9.066406 C 12.148438 8.4375 11.46875 8.089844 10.792969 8.21875 C 10.113281 8.34375 9.609375 8.917969 9.566406 9.605469 C 8.972656 9.992188 8.613281 10.65625 8.613281 11.363281 L 8.613281 14.96875 C 8.617188 17.183594 10.234375 19.070312 12.425781 19.414062 L 12.425781 19.976562 C 12.425781 22.613281 14.5625 24.75 17.199219 24.75 C 19.835938 24.75 21.972656 22.613281 21.972656 19.976562 L 21.972656 17.425781 C 23.140625 17.109375 23.957031 16.050781 23.957031 14.839844 Z M 22.574219 14.839844 C 22.574219 15.554688 21.996094 16.132812 21.28125 16.132812 C 20.566406 16.132812 19.988281 15.554688 19.988281 14.839844 C 19.988281 14.128906 20.566406 13.550781 21.28125 13.550781 C 21.996094 13.550781 22.574219 14.128906 22.574219 14.839844 Z M 22.574219 14.839844 "/>
</g>
</svg>
