<?xml version="1.0" encoding="UTF-8"?>
<svg xmlns="http://www.w3.org/2000/svg" xmlns:xlink="http://www.w3.org/1999/xlink" width="25px" height="25px" viewBox="0 0 32 32" version="1.1">
<g id="surface1">
<path style=" stroke:none;fill-rule:evenodd;fill:rgb(0%,0%,0%);fill-opacity:1;" d="M 4.246094 24.261719 C 4.140625 24.4375 4.265625 24.667969 4.476562 24.667969 L 26.925781 24.667969 C 27.117188 24.667969 27.246094 24.46875 27.167969 24.292969 L 20.253906 8.582031 C 20.160156 8.363281 19.851562 8.371094 19.765625 8.589844 L 16.773438 16.066406 C 16.738281 16.152344 16.753906 16.253906 16.8125 16.328125 L 19.046875 19.175781 C 19.503906 19.753906 19.402344 20.59375 18.824219 21.046875 C 18.246094 21.503906 17.40625 21.402344 16.953125 20.824219 L 11.222656 13.535156 C 11.109375 13.386719 10.882812 13.402344 10.789062 13.558594 Z M 4.246094 24.261719 "/>
<path style=" stroke:none;fill-rule:nonzero;fill:rgb(0%,0%,0%);fill-opacity:1;" d="M 19.046875 19.175781 L 19.574219 18.765625 Z M 18.824219 21.046875 L 18.410156 20.523438 Z M 16.953125 20.824219 L 17.476562 20.410156 Z M 16.773438 16.066406 L 16.15625 15.816406 Z M 16.8125 16.328125 L 16.289062 16.742188 Z M 11.222656 13.535156 L 11.75 13.121094 Z M 10.789062 13.558594 L 10.21875 13.210938 Z M 20.253906 8.582031 L 20.867188 8.3125 Z M 19.765625 8.589844 L 20.382812 8.835938 Z M 4.246094 24.261719 L 3.679688 23.914062 Z M 27.167969 24.292969 L 26.558594 24.5625 Z M 26.925781 25.332031 L 4.476562 25.332031 L 4.476562 24 L 26.925781 24 Z M 20.867188 8.3125 L 27.777344 24.023438 L 26.558594 24.5625 L 19.644531 8.851562 Z M 16.15625 15.816406 L 19.144531 8.34375 L 20.382812 8.835938 L 17.394531 16.3125 Z M 17.335938 15.917969 L 19.574219 18.765625 L 18.523438 19.589844 L 16.289062 16.742188 Z M 19.574219 18.765625 C 20.253906 19.632812 20.105469 20.890625 19.234375 21.574219 L 18.410156 20.523438 C 18.703125 20.296875 18.75 19.878906 18.523438 19.589844 Z M 19.234375 21.574219 C 18.367188 22.253906 17.109375 22.105469 16.425781 21.234375 L 17.476562 20.410156 C 17.703125 20.703125 18.121094 20.75 18.410156 20.523438 Z M 16.425781 21.234375 L 10.699219 13.945312 L 11.75 13.121094 L 17.476562 20.410156 Z M 3.679688 23.914062 L 10.21875 13.210938 L 11.355469 13.90625 L 4.816406 24.609375 Z M 17.394531 16.3125 C 17.445312 16.179688 17.425781 16.03125 17.335938 15.917969 L 16.289062 16.742188 C 16.082031 16.480469 16.03125 16.128906 16.15625 15.816406 Z M 10.699219 13.945312 C 10.871094 14.164062 11.210938 14.144531 11.355469 13.90625 L 10.21875 13.210938 C 10.558594 12.65625 11.347656 12.609375 11.75 13.121094 Z M 19.644531 8.851562 C 19.789062 9.175781 20.25 9.167969 20.382812 8.835938 L 19.144531 8.34375 C 19.453125 7.574219 20.53125 7.554688 20.867188 8.3125 Z M 4.476562 25.332031 C 3.746094 25.332031 3.300781 24.535156 3.679688 23.914062 L 4.816406 24.609375 C 4.980469 24.34375 4.789062 24 4.476562 24 Z M 26.925781 24 C 26.636719 24 26.441406 24.296875 26.558594 24.5625 L 27.777344 24.023438 C 28.050781 24.640625 27.597656 25.332031 26.925781 25.332031 Z M 26.925781 24 "/>
</g>
</svg>
