<?xml version="1.0" encoding="UTF-8"?>
<svg xmlns="http://www.w3.org/2000/svg" xmlns:xlink="http://www.w3.org/1999/xlink" width="16px" height="16px" viewBox="0 0 16 16" version="1.1">
<g id="surface1">
<path style=" stroke:none;fill-rule:nonzero;fill:rgb(0%,0%,0%);fill-opacity:1;" d="M 8.269531 8.074219 C 9.164062 8.074219 9.6875 7.527344 9.6875 6.585938 C 9.6875 5.644531 9.164062 5.105469 8.269531 5.105469 L 6.777344 5.105469 L 6.777344 8.074219 Z M 8.269531 8.074219 "/>
<path style=" stroke:none;fill-rule:nonzero;fill:rgb(0%,0%,0%);fill-opacity:1;" d="M 2 0 C 0.894531 0 0 0.894531 0 2 L 0 14 C 0 15.105469 0.894531 16 2 16 L 14 16 C 15.105469 16 16 15.105469 16 14 L 16 2 C 16 0.894531 15.105469 0 14 0 Z M 5.5 4.003906 L 8.460938 4.003906 C 10.046875 4.003906 11 5.105469 11 6.585938 C 11 8.078125 10.03125 9.164062 8.449219 9.164062 L 6.785156 9.164062 L 6.785156 12 L 5.5 12 Z M 5.5 4.003906 "/>
</g>
</svg>
