<?xml version="1.0" encoding="UTF-8"?>
<svg xmlns="http://www.w3.org/2000/svg" xmlns:xlink="http://www.w3.org/1999/xlink" width="25px" height="25px" viewBox="0 0 32 32" version="1.1">
<g id="surface1">
<path style=" stroke:none;fill-rule:nonzero;fill:rgb(0%,0%,0%);fill-opacity:1;" d="M 0 0 L 0 2.285156 L 2.285156 2.285156 L 4.570312 25.144531 L 27.429688 25.144531 L 27.429688 22.855469 L 6.855469 22.855469 L 6.570312 20.570312 L 27.429688 20.570312 L 32 6.855469 L 5.355469 6.855469 L 4.570312 0 Z M 6.855469 27.429688 C 5.59375 27.429688 4.570312 28.453125 4.570312 29.714844 C 4.570312 30.976562 5.59375 32 6.855469 32 C 8.121094 32 9.144531 30.976562 9.144531 29.714844 C 9.144531 28.453125 8.121094 27.429688 6.855469 27.429688 Z M 25.144531 27.429688 C 23.878906 27.429688 22.855469 28.453125 22.855469 29.714844 C 22.855469 30.976562 23.878906 32 25.144531 32 C 26.40625 32 27.429688 30.976562 27.429688 29.714844 C 27.429688 28.453125 26.40625 27.429688 25.144531 27.429688 Z M 25.144531 27.429688 "/>
</g>
</svg>
