<?xml version="1.0" encoding="UTF-8"?>
<svg xmlns="http://www.w3.org/2000/svg" xmlns:xlink="http://www.w3.org/1999/xlink" width="25px" height="25px" viewBox="0 0 32 32" version="1.1">
<g id="surface1">
<path style=" stroke:none;fill-rule:nonzero;fill:rgb(0%,0%,0%);fill-opacity:1;" d="M 21.242188 1.03125 C 17.292969 0.0390625 14.707031 0.0390625 10.761719 1.03125 C 8.910156 1.488281 6.796875 2.5625 5.199219 3.46875 C 3.132812 4.644531 2 6.863281 2 9.164062 L 2 27 C 2 29.761719 4.238281 32 7 32 L 25 32 C 27.761719 32 30 29.761719 30 27 L 30 9.164062 C 30 6.867188 28.871094 4.644531 26.800781 3.46875 C 25.207031 2.5625 23.089844 1.492188 21.242188 1.027344 Z M 13 4 L 19 4 C 19.550781 4 20 4.449219 20 5 C 20 5.550781 19.550781 6 19 6 L 13 6 C 12.449219 6 12 5.550781 12 5 C 12 4.449219 12.449219 4 13 4 M 9 8 L 23 8 C 24.65625 8 26 9.34375 26 11 L 26 15 C 26 16.65625 24.65625 18 23 18 L 9 18 C 7.34375 18 6 16.65625 6 15 L 6 11 C 6 9.34375 7.34375 8 9 8 M 10 26 C 10 27.105469 9.105469 28 8 28 C 6.894531 28 6 27.105469 6 26 C 6 24.894531 6.894531 24 8 24 C 9.105469 24 10 24.894531 10 26 M 10 26 C 10 24.894531 10.894531 24 12 24 C 13.105469 24 14 24.894531 14 26 C 14 27.105469 13.105469 28 12 28 C 10.894531 28 10 27.105469 10 26 M 26 26 C 26 27.105469 25.105469 28 24 28 C 22.894531 28 22 27.105469 22 26 C 22 24.894531 22.894531 24 24 24 C 25.105469 24 26 24.894531 26 26 M 20 24 C 21.105469 24 22 24.894531 22 26 C 22 27.105469 21.105469 28 20 28 C 18.894531 28 18 27.105469 18 26 C 18 24.894531 18.894531 24 20 24 M 8 11 C 8 10.449219 8.449219 10 9 10 L 15 10 L 15 16 L 9 16 C 8.449219 16 8 15.550781 8 15 Z M 17 16 L 17 10 L 23 10 C 23.550781 10 24 10.449219 24 11 L 24 15 C 24 15.550781 23.550781 16 23 16 Z M 17 16 "/>
</g>
</svg>
