<?xml version="1.0" encoding="UTF-8"?>
<svg xmlns="http://www.w3.org/2000/svg" xmlns:xlink="http://www.w3.org/1999/xlink" width="40px" height="40px" viewBox="0 0 40 40" version="1.1">
<g id="surface1">
<path style=" stroke:none;fill-rule:nonzero;fill:rgb(0%,0%,0%);fill-opacity:1;" d="M 20 0 C 8.960938 0.015625 0.015625 8.960938 0 20 C 0.015625 31.039062 8.960938 39.984375 20 40 C 31.039062 39.984375 39.984375 31.039062 40 20 C 39.984375 8.960938 31.039062 0.015625 20 0 Z M 20 37.5 C 10.34375 37.492188 2.507812 29.65625 2.5 20 C 2.507812 10.34375 10.34375 2.507812 20 2.5 C 29.65625 2.507812 37.492188 10.34375 37.5 20 C 37.492188 29.65625 29.65625 37.492188 20 37.5 Z M 29.632812 12.132812 L 21.765625 20 L 29.632812 27.867188 C 29.867188 28.101562 30 28.417969 30 28.75 C 30 29.082031 29.867188 29.398438 29.632812 29.632812 C 29.398438 29.867188 29.082031 30 28.75 30 C 28.417969 30 28.101562 29.867188 27.867188 29.632812 L 20 21.765625 L 12.132812 29.632812 C 11.898438 29.867188 11.582031 30 11.25 30 C 10.917969 30 10.601562 29.867188 10.367188 29.632812 C 10.132812 29.398438 10 29.082031 10 28.75 C 10 28.417969 10.132812 28.101562 10.367188 27.867188 L 18.234375 20 L 10.367188 12.132812 C 10.132812 11.898438 10 11.582031 10 11.25 C 10 10.917969 10.132812 10.601562 10.367188 10.367188 C 10.601562 10.132812 10.917969 10 11.25 10 C 11.582031 10 11.898438 10.132812 12.132812 10.367188 L 20 18.234375 L 27.867188 10.367188 C 28.101562 10.132812 28.417969 10 28.75 10 C 29.082031 10 29.398438 10.132812 29.632812 10.367188 C 29.867188 10.601562 30 10.917969 30 11.25 C 30 11.582031 29.867188 11.898438 29.632812 12.132812 Z M 29.632812 12.132812 "/>
</g>
</svg>
